<?xml version="1.0" encoding="utf-8"?>
<!-- Generator: Adobe Illustrator 16.0.3, SVG Export Plug-In . SVG Version: 6.00 Build 0)  -->
<svg version="1.2" baseProfile="tiny" xmlns="http://www.w3.org/2000/svg" xmlns:xlink="http://www.w3.org/1999/xlink" x="0px"
	 y="0px" width="512px" height="512px" viewBox="0 0 512 512" xml:space="preserve">
<g id="Layer_1">
	<circle fill="#176EB7" cx="256" cy="256" r="256"/>
	<circle fill="#2E2A2B" stroke="#498DCB" stroke-width="8" stroke-miterlimit="10" cx="256" cy="256" r="220"/>
</g>
<g id="Layer_2">
	<g>
		<path fill="#CAD0D5" d="M107.202,380.32V131.68h41.279c8.53,0,15.891,3.095,22.08,9.28c6.185,6.19,9.28,13.44,9.28,21.76V266.4
			c0,8.535-3.096,15.895-9.28,22.08c-6.399,5.975-13.76,8.961-22.08,8.961h-20.479v82.879H107.202z M128.002,152.48v124.16h20.479
			c2.985,0,5.44-0.961,7.36-2.881c2.13-2.129,3.2-4.584,3.2-7.359V162.72c0-2.56-1.07-4.905-3.2-7.04c-2.135-2.13-4.59-3.2-7.36-3.2
			H128.002z"/>
		<path fill="#CAD0D5" d="M223.997,214.561v1.92c3.2-1.28,6.61-1.92,10.24-1.92c7.465,0,14.29,2.67,20.479,8
			c5.971-5.33,12.905-8,20.801-8c8.745,0,16.104,2.99,22.08,8.96c6.185,6.19,9.279,13.44,9.279,21.76V380h-20.8V245.28
			c0-2.56-1.07-4.905-3.2-7.04c-2.135-2.13-4.479-3.2-7.04-3.2c-2.774,0-5.229,1.07-7.359,3.2c-2.136,2.135-3.2,4.48-3.2,7.04V380
			h-20.8V245.6c0-2.985-0.96-5.44-2.88-7.36c-2.351-1.92-4.801-2.88-7.36-2.88c-2.775,0-5.23,0.96-7.36,2.88
			c-1.92,1.92-2.88,4.375-2.88,7.36v134.72h-20.8v-165.76H223.997z"/>
		<path fill="#CAD0D5" d="M352.958,318.24v25.92c0,4.27,1.49,7.895,4.48,10.881c2.984,2.99,6.609,4.48,10.88,4.48
			c4.479,0,8.104-1.49,10.88-4.48c3.2-3.201,4.8-6.826,4.8-10.881v-93.12c0-4.265-1.6-8-4.8-11.2c-2.775-2.985-6.4-4.48-10.88-4.48
			h-36.16c0-17.28,0-34.56,0-51.84c0-17.28,0-34.56,0-51.84h72.64v20.8h-51.84v62.08h15.36c10.024,0,18.56,3.63,25.6,10.88
			c7.25,7.04,10.88,15.575,10.88,25.6v93.12c0,9.814-3.63,18.35-10.88,25.6c-7.04,7.041-15.575,10.561-25.6,10.561
			c-9.815,0-18.351-3.52-25.601-10.561c-7.04-7.25-10.56-15.785-10.56-25.6v-25.92H352.958z"/>
	</g>
</g>
</svg>
